<svg xmlns="http://www.w3.org/2000/svg" xmlns:xlink="http://www.w3.org/1999/xlink" viewBox="0 0 47.49 61.7"><defs><style>.cls-1,.cls-2,.cls-3,.cls-4{stroke:#fff;stroke-miterlimit:10;stroke-width:7px;}.cls-1{fill:url(#linear-gradient);}.cls-2{fill:url(#linear-gradient-2);}.cls-3{fill:url(#linear-gradient-3);}.cls-4{fill:url(#linear-gradient-4);}.cls-5{fill:url(#linear-gradient-5);}.cls-6{fill:url(#linear-gradient-6);}.cls-7{fill:url(#linear-gradient-7);}.cls-8{fill:url(#linear-gradient-8);}.cls-9{fill:#fff;}.cls-10{fill:#006dff;}</style><linearGradient id="linear-gradient" x1="-283.22" y1="-448.32" x2="-282.53" y2="-448.32" gradientTransform="translate(-5150.8 16886.71) rotate(49.25) scale(33.28)" gradientUnits="userSpaceOnUse"><stop offset="0" stop-color="#f7b332"/><stop offset="0.52" stop-color="#f6892d"/><stop offset="1" stop-color="#f4001d"/></linearGradient><linearGradient id="linear-gradient-2" x1="-293.89" y1="-459.31" x2="-293.2" y2="-459.31" gradientTransform="translate(-27878.74 3898.08) rotate(114.68) scale(51.67)" gradientUnits="userSpaceOnUse"><stop offset="0" stop-color="#f7a432"/><stop offset="0.47" stop-color="#f97e24"/><stop offset="1" stop-color="#ff1a00"/></linearGradient><linearGradient id="linear-gradient-3" x1="-285.3" y1="-441.04" x2="-284.61" y2="-441.04" gradientTransform="translate(2939.77 16187.57) rotate(22.64) scale(31.25)" gradientUnits="userSpaceOnUse"><stop offset="0" stop-color="#f7a432"/><stop offset="1" stop-color="#ff5b00"/></linearGradient><linearGradient id="linear-gradient-4" x1="-316.11" y1="-442.19" x2="-315.42" y2="-442.19" gradientTransform="matrix(-3.2, -27.44, 27.44, -3.2, 11162.77, -10030.8)" gradientUnits="userSpaceOnUse"><stop offset="0" stop-color="#f7a432"/><stop offset="1" stop-color="#fe6104"/></linearGradient><linearGradient id="linear-gradient-5" x1="-283.22" y1="-448.31" x2="-282.53" y2="-448.31" xlink:href="#linear-gradient"/><linearGradient id="linear-gradient-6" x1="-293.89" y1="-459.31" x2="-293.2" y2="-459.31" xlink:href="#linear-gradient-2"/><linearGradient id="linear-gradient-7" x1="-285.3" y1="-441.03" x2="-284.61" y2="-441.03" xlink:href="#linear-gradient-3"/><linearGradient id="linear-gradient-8" x1="-316.12" y1="-442.18" x2="-315.43" y2="-442.18" xlink:href="#linear-gradient-4"/></defs><title>stillAsset 4</title><g id="Layer_2" data-name="Layer 2"><g id="Layer_1-2" data-name="Layer 1"><path class="cls-1" d="M5.65,39h9.61c-3.17-9.55,0-18,2.66-25.84A7.29,7.29,0,0,0,13.4,3.9,7.6,7.6,0,0,0,11,3.5h0C2.81,15.92,1.82,27.63,5.65,39Z"/><path class="cls-2" d="M6.05,37.11,14.86,41c.91-10,7.15-16.54,12.76-22.63A7.31,7.31,0,0,0,27.17,8a7.6,7.6,0,0,0-2-1.32h0C12.68,14.79,7.09,25.13,6.05,37.11Z"/><path class="cls-3" d="M24.82,58.2A19.17,19.17,0,1,1,44,39,19.17,19.17,0,0,1,24.82,58.2Zm0-9.58A9.59,9.59,0,1,1,34.41,39a9.6,9.6,0,0,1-9.59,9.6Z"/><path class="cls-4" d="M34.11,48.58a9.62,9.62,0,0,0,9.63,9.62h0V38.29H34.11Z"/></g><g id="Layer_7" data-name="Layer 7"><path class="cls-5" d="M5.69,39.25h9.6c-3.17-9.55,0-18,2.67-25.84a7.31,7.31,0,0,0-6.89-9.68h0C2.84,16.14,1.85,27.86,5.69,39.25Z"/></g><g id="Layer_6" data-name="Layer 6"><path class="cls-6" d="M6.09,37.34l8.8,3.84c.91-10,7.15-16.53,12.76-22.63A7.29,7.29,0,0,0,27.2,8.24a7.22,7.22,0,0,0-2-1.32h0C12.71,15,7.12,25.36,6.09,37.34Z"/></g><g id="Layer_9" data-name="Layer 9"><path class="cls-7" d="M24.85,58.43A19.17,19.17,0,1,1,44,39.25,19.17,19.17,0,0,1,24.85,58.43Zm0-9.59a9.58,9.58,0,1,1,9.59-9.59,9.57,9.57,0,0,1-9.59,9.59Z"/></g><g id="Layer_4" data-name="Layer 4"><path class="cls-8" d="M34.4,48.81A9.62,9.62,0,0,0,44,58.45h0v-20H34.4Z"/></g><g id="Layer_3" data-name="Layer 3"><circle class="cls-9" cx="24.85" cy="39.26" r="9.33"/><circle class="cls-10" cx="24.85" cy="39.26" r="6.72"/></g></g></svg>