<?xml version="1.0" encoding="UTF-8" standalone="no"?>
<!DOCTYPE svg PUBLIC "-//W3C//DTD SVG 1.1//EN" "http://www.w3.org/Graphics/SVG/1.1/DTD/svg11.dtd">
<svg width="100%" height="100%" viewBox="0 0 3508 2481" version="1.1" xmlns="http://www.w3.org/2000/svg" xmlns:xlink="http://www.w3.org/1999/xlink" xml:space="preserve" xmlns:serif="http://www.serif.com/" style="fill-rule:evenodd;clip-rule:evenodd;stroke-linejoin:round;stroke-miterlimit:1.41421;">
    <g transform="matrix(6.25804,0,0,6.25804,-6968.66,-7324.12)">
        <path d="M1321.22,1401.74C1324.42,1401.74 1327.1,1402.92 1329.25,1405.29C1331.4,1407.65 1332.47,1410.65 1332.47,1414.29C1332.47,1418.22 1331.22,1421.42 1328.72,1423.89C1326.22,1426.35 1323.01,1427.59 1319.07,1427.59C1315.14,1427.59 1311.91,1426.37 1309.4,1423.94C1306.88,1421.5 1305.62,1418.4 1305.62,1414.64C1305.62,1414.64 1305.62,1405.9 1305.62,1399.34C1305.62,1395.42 1308.8,1392.24 1312.72,1392.24C1313.25,1392.24 1313.57,1392.24 1313.57,1392.24L1313.57,1405.29C1315.24,1402.92 1317.79,1401.74 1321.22,1401.74ZM1319.22,1421.24C1320.89,1421.24 1322.23,1420.63 1323.25,1419.41C1324.27,1418.2 1324.77,1416.6 1324.77,1414.64C1324.77,1412.7 1324.27,1411.13 1323.25,1409.91C1322.23,1408.7 1320.89,1408.09 1319.22,1408.09C1317.52,1408.09 1316.16,1408.69 1315.12,1409.89C1314.09,1411.09 1313.57,1412.67 1313.57,1414.64C1313.57,1416.6 1314.09,1418.2 1315.12,1419.41C1316.16,1420.63 1317.52,1421.24 1319.22,1421.24Z" style="fill:rgb(26,26,26);fill-rule:nonzero;"/>
        <path d="M1348.87,1401.74C1352.81,1401.74 1356.04,1402.95 1358.57,1405.39C1361.11,1407.82 1362.37,1410.9 1362.37,1414.64L1362.37,1427.09C1362.37,1427.09 1359.72,1427.09 1357.47,1427.09C1356.65,1427.09 1355.86,1426.76 1355.28,1426.18C1354.7,1425.6 1354.37,1424.81 1354.37,1423.99C1354.37,1423.99 1354.37,1423.99 1354.37,1423.99C1352.74,1426.39 1350.19,1427.59 1346.72,1427.59C1343.56,1427.59 1340.89,1426.4 1338.72,1424.04C1336.56,1421.67 1335.47,1418.67 1335.47,1415.04C1335.47,1411.14 1336.73,1407.95 1339.25,1405.46C1341.77,1402.98 1344.97,1401.74 1348.87,1401.74ZM1345.15,1418.96C1346.16,1420.08 1347.46,1420.64 1349.02,1420.64C1350.59,1420.64 1351.87,1420.07 1352.87,1418.94C1353.87,1417.8 1354.37,1416.37 1354.37,1414.64C1354.37,1412.9 1353.87,1411.48 1352.87,1410.36C1351.87,1409.25 1350.59,1408.69 1349.02,1408.69C1347.46,1408.69 1346.16,1409.25 1345.15,1410.36C1344.13,1411.48 1343.62,1412.9 1343.62,1414.64C1343.62,1416.4 1344.13,1417.85 1345.15,1418.96Z" style="fill:rgb(26,26,26);fill-rule:nonzero;"/>
        <path d="M1375.27,1421.94C1375.27,1423.3 1374.73,1424.61 1373.77,1425.58C1372.8,1426.55 1371.49,1427.09 1370.13,1427.09C1368.57,1427.09 1367.27,1427.09 1367.27,1427.09L1367.27,1412.79C1367.27,1409.42 1368.45,1406.82 1370.8,1404.99C1373.15,1403.15 1376.51,1402.24 1380.87,1402.24L1380.87,1408.89C1377.14,1408.89 1375.27,1410.44 1375.27,1413.54C1375.27,1413.54 1375.27,1418.11 1375.27,1421.94Z" style="fill:rgb(26,26,26);fill-rule:nonzero;"/>
        <path d="M1383.87,1427.09L1383.87,1412.54C1383.87,1409.37 1385.01,1406.78 1387.27,1404.76C1389.54,1402.75 1392.44,1401.74 1395.97,1401.74C1399.51,1401.74 1402.41,1402.75 1404.7,1404.76C1406.98,1406.78 1408.12,1409.37 1408.12,1412.54L1408.12,1427.09L1400.12,1427.09L1400.12,1412.54C1400.12,1411.27 1399.75,1410.25 1399,1409.46C1398.25,1408.68 1397.26,1408.29 1396.02,1408.29C1394.79,1408.29 1393.79,1408.68 1393.02,1409.46C1392.26,1410.25 1391.87,1411.27 1391.87,1412.54L1391.87,1427.09L1383.87,1427.09Z" style="fill:rgb(26,26,26);fill-rule:nonzero;"/>
        <path d="M1415.9,1405.39C1418.45,1402.95 1421.69,1401.74 1425.62,1401.74C1429.56,1401.74 1432.79,1402.95 1435.32,1405.39C1437.86,1407.82 1439.12,1410.9 1439.12,1414.64C1439.12,1418.4 1437.86,1421.5 1435.32,1423.94C1432.79,1426.37 1429.56,1427.59 1425.62,1427.59C1421.69,1427.59 1418.45,1426.37 1415.9,1423.94C1413.35,1421.5 1412.07,1418.4 1412.07,1414.64C1412.07,1410.9 1413.35,1407.82 1415.9,1405.39ZM1429.47,1410.36C1428.47,1409.25 1427.19,1408.69 1425.62,1408.69C1424.06,1408.69 1422.77,1409.25 1421.75,1410.36C1420.73,1411.48 1420.22,1412.9 1420.22,1414.64C1420.22,1416.4 1420.73,1417.85 1421.75,1418.96C1422.77,1420.08 1424.06,1420.64 1425.62,1420.64C1427.19,1420.64 1428.47,1420.07 1429.47,1418.94C1430.47,1417.8 1430.97,1416.37 1430.97,1414.64C1430.97,1412.9 1430.47,1411.48 1429.47,1410.36Z" style="fill:rgb(26,26,26);fill-rule:nonzero;"/>
        <rect x="1443.37" y="1392.24" width="7.95" height="34.85" style="fill:rgb(26,26,26);fill-rule:nonzero;"/>
        <path d="M1474.07,1398.87C1474.07,1397.11 1474.77,1395.42 1476.02,1394.18C1477.26,1392.94 1478.95,1392.24 1480.71,1392.24C1481.49,1392.24 1482.02,1392.24 1482.02,1392.24L1482.02,1414.64C1482.02,1418.4 1480.77,1421.5 1478.25,1423.94C1475.73,1426.37 1472.51,1427.59 1468.57,1427.59C1464.64,1427.59 1461.42,1426.35 1458.92,1423.89C1456.42,1421.42 1455.17,1418.22 1455.17,1414.29C1455.17,1410.65 1456.25,1407.65 1458.4,1405.29C1460.55,1402.92 1463.22,1401.74 1466.42,1401.74C1469.86,1401.74 1472.41,1402.92 1474.07,1405.29C1474.07,1405.29 1474.07,1402.1 1474.07,1398.87ZM1468.42,1421.24C1470.12,1421.24 1471.49,1420.63 1472.52,1419.41C1473.56,1418.2 1474.07,1416.6 1474.07,1414.64C1474.07,1412.67 1473.56,1411.09 1472.52,1409.89C1471.49,1408.69 1470.12,1408.09 1468.42,1408.09C1466.76,1408.09 1465.41,1408.7 1464.4,1409.91C1463.38,1411.13 1462.87,1412.7 1462.87,1414.64C1462.87,1416.6 1463.38,1418.2 1464.4,1419.41C1465.41,1420.63 1466.76,1421.24 1468.42,1421.24Z" style="fill:rgb(26,26,26);fill-rule:nonzero;"/>
    </g>
    <g transform="matrix(1.32119,0,0,1.32119,-554.378,449.457)">
        <g transform="matrix(-0.542005,-9.84354e-18,5.90612e-18,-0.567441,2363.43,1237.72)">
            <path d="M1347.25,1225.33L1235.62,1225.33C1272.46,1331.26 1236.12,1424.95 1204.68,1512.13C1195.77,1536.9 1199.94,1564.27 1215.88,1585.59C1231.81,1606.91 1257.55,1619.57 1284.98,1619.57C1284.98,1619.57 1284.98,1619.57 1284.98,1619.57C1380.29,1481.88 1391.85,1351.85 1347.25,1225.33Z" style="fill:url(#_Linear1);"/>
        </g>
        <g transform="matrix(-0.496872,-0.216537,0.226699,-0.52019,2027.36,1459.47)">
            <path d="M1347.25,1225.33L1235.62,1225.33C1272.46,1331.26 1236.12,1424.95 1204.68,1512.13C1195.77,1536.9 1199.94,1564.27 1215.88,1585.59C1231.81,1606.91 1257.55,1619.57 1284.98,1619.57C1284.98,1619.57 1284.98,1619.57 1284.98,1619.57C1380.29,1481.88 1391.85,1351.85 1347.25,1225.33Z" style="fill:url(#_Linear2);"/>
        </g>
        <g transform="matrix(-0.567441,0,0,-0.567441,2628.47,1294.36)">
            <path d="M1541.19,1112.39C1658.61,1112.39 1753.94,1207.72 1753.94,1325.13C1753.94,1442.55 1658.61,1537.88 1541.19,1537.88C1423.77,1537.88 1328.44,1442.55 1328.44,1325.13C1328.44,1207.72 1423.77,1112.39 1541.19,1112.39ZM1541.19,1218.76C1599.9,1218.76 1647.56,1266.42 1647.56,1325.13C1647.56,1383.84 1599.9,1431.51 1541.19,1431.51C1482.48,1431.51 1434.82,1383.84 1434.82,1325.13C1434.82,1266.42 1482.48,1218.76 1541.19,1218.76Z" style="fill:url(#_Linear3);"/>
        </g>
        <g transform="matrix(-0.637739,0,0,-0.592622,2720.65,1369.31)">
            <path d="M1421.57,1293.85C1421.57,1237.38 1379.03,1191.6 1326.56,1191.6C1326.56,1191.6 1326.56,1191.6 1326.56,1191.6L1326.56,1403.4L1421.57,1403.4C1421.57,1403.4 1421.57,1347.99 1421.57,1293.85Z" style="fill:url(#_Linear4);"/>
        </g>
        <g transform="matrix(1.19989,0,0,1.19989,-349.502,-749.502)">
            <circle cx="1753.02" cy="1076.7" r="39.681" style="fill:rgb(0,109,255);"/>
        </g>
    </g>
    <g transform="matrix(0.487678,0,0,0.487678,1075.57,673.117)">
        <path d="M2555.49,1425.37L2525.89,1425.37L2525.89,1431.22L2537.14,1431.22L2537.14,1462.37L2544.18,1462.37L2544.18,1431.22L2555.49,1431.22L2555.49,1425.37Z" style="fill:rgb(36,36,36);fill-rule:nonzero;"/>
        <path d="M2602.09,1462.37L2599.59,1425.17L2591.84,1425.17L2580.34,1450.82L2568.84,1425.17L2561.09,1425.17L2558.59,1462.37L2565.64,1462.37L2567.09,1437.22L2578.39,1462.37L2582.29,1462.37L2593.59,1437.12L2595.04,1462.37L2602.09,1462.37Z" style="fill:rgb(36,36,36);fill-rule:nonzero;"/>
    </g>
    <defs>
        <linearGradient id="_Linear1" x1="0" y1="0" x2="1" y2="0" gradientUnits="userSpaceOnUse" gradientTransform="matrix(-173.894,-192.763,201.809,-166.099,1347.25,1630.84)"><stop offset="0" style="stop-color:rgb(247,179,50);stop-opacity:1"/><stop offset="0.52" style="stop-color:rgb(246,137,45);stop-opacity:1"/><stop offset="1" style="stop-color:rgb(244,0,29);stop-opacity:1"/></linearGradient>
        <linearGradient id="_Linear2" x1="0" y1="0" x2="1" y2="0" gradientUnits="userSpaceOnUse" gradientTransform="matrix(8.13403,-394.942,413.477,7.76941,1288.55,1618.08)"><stop offset="0" style="stop-color:rgb(247,164,50);stop-opacity:1"/><stop offset="0.47" style="stop-color:rgb(249,126,36);stop-opacity:1"/><stop offset="1" style="stop-color:rgb(255,26,0);stop-opacity:1"/></linearGradient>
        <linearGradient id="_Linear3" x1="0" y1="0" x2="1" y2="0" gradientUnits="userSpaceOnUse" gradientTransform="matrix(-220.54,-91.9579,91.9579,-220.54,1625.1,1425.54)"><stop offset="0" style="stop-color:rgb(247,164,50);stop-opacity:1"/><stop offset="1" style="stop-color:rgb(255,91,0);stop-opacity:1"/></linearGradient>
        <linearGradient id="_Linear4" x1="0" y1="0" x2="1" y2="0" gradientUnits="userSpaceOnUse" gradientTransform="matrix(21.759,200.88,-186.668,23.4156,1326.56,1202.52)"><stop offset="0" style="stop-color:rgb(247,164,50);stop-opacity:1"/><stop offset="1" style="stop-color:rgb(254,97,4);stop-opacity:1"/></linearGradient>
    </defs>
</svg>
